<svg width="18" height="16" viewBox="0 0 18 16" fill="none" xmlns="http://www.w3.org/2000/svg">
<path opacity="0.4" d="M7.27499 11.6611H1.357C0.607997 11.6611 0 12.2585 0 12.9943C0 13.7292 0.607997 14.3275 1.357 14.3275H7.27499C8.02397 14.3275 8.63201 13.7292 8.63201 12.9943C8.63201 12.2585 8.02397 11.6611 7.27499 11.6611Z" fill="white"/>
<path opacity="0.4" d="M18.0002 3.0412C18.0002 2.30632 17.3921 1.70898 16.6441 1.70898H10.7262C9.97718 1.70898 9.36914 2.30632 9.36914 3.0412C9.36914 3.77706 9.97718 4.3744 10.7262 4.3744H16.6441C17.3921 4.3744 18.0002 3.77706 18.0002 3.0412Z" fill="white"/>
<path d="M6.18998 3.04071C6.18998 4.72072 4.80499 6.08241 3.09499 6.08241C1.38599 6.08241 0 4.72072 0 3.04071C0 1.36169 1.38599 0 3.09499 0C4.80499 0 6.18998 1.36169 6.18998 3.04071Z" fill="white"/>
<path d="M18.0001 12.9596C18.0001 14.6387 16.6151 16.0004 14.9051 16.0004C13.1961 16.0004 11.8101 14.6387 11.8101 12.9596C11.8101 11.2796 13.1961 9.91797 14.9051 9.91797C16.6151 9.91797 18.0001 11.2796 18.0001 12.9596Z" fill="white"/>
</svg>
